<svg width="64" height="64" viewBox="0 0 64 64" fill="none" xmlns="http://www.w3.org/2000/svg">
<path d="M23.66 9.90003C26.8425 9.89903 29.965 10.7664 32.691 12.4087C35.4171 14.0511 37.6433 16.4061 39.13 19.22C40.956 18.1525 43.0037 17.5206 45.1138 17.3735C47.2239 17.2264 49.3394 17.5681 51.2959 18.3721C53.2523 19.176 54.9969 20.4205 56.394 22.0087C57.791 23.5969 58.8028 25.4859 59.3506 27.529C59.8985 29.572 59.9676 31.7138 59.5526 33.7879C59.1376 35.862 58.2497 37.8124 56.9579 39.4873C55.6662 41.1623 54.0054 42.5166 52.1049 43.445C50.2043 44.3734 48.1152 44.8508 46 44.84L23.61 44.9C18.9687 44.9 14.5175 43.0563 11.2356 39.7744C7.95373 36.4925 6.10999 32.0413 6.10999 27.4C6.10999 22.7587 7.95373 18.3075 11.2356 15.0257C14.5175 11.7438 18.9687 9.90003 23.61 9.90003H23.66Z" fill="url(#paint0_linear_12_4508)"/>
<path d="M59.2976 34.7944C61.341 27.4806 57.0685 19.895 49.7547 17.8516C42.4409 15.8082 34.8554 20.0807 32.8119 27.3945C30.7685 34.7083 35.041 42.2939 42.3548 44.3373C49.6686 46.3807 57.2542 42.1082 59.2976 34.7944Z" fill="url(#paint1_linear_12_4508)"/>
<path d="M32.13 27.1V37.23" stroke="#4F7496" stroke-width="2" stroke-miterlimit="10" stroke-linecap="round"/>
<path d="M33.3 25.79L32.13 27.26L30.95 25.79" stroke="#4F7496" stroke-width="2" stroke-miterlimit="10" stroke-linecap="round"/>
<path d="M30.95 38.55L32.13 37.08L33.3 38.55" stroke="#4F7496" stroke-width="2" stroke-miterlimit="10" stroke-linecap="round"/>
<path d="M36.51 29.63L27.74 34.7" stroke="#4F7496" stroke-width="2" stroke-miterlimit="10" stroke-linecap="round"/>
<path d="M38.24 30L36.38 29.71L37.06 27.96" stroke="#4F7496" stroke-width="2" stroke-miterlimit="10" stroke-linecap="round"/>
<path d="M26.01 34.34L27.87 34.62L27.19 36.38" stroke="#4F7496" stroke-width="2" stroke-miterlimit="10" stroke-linecap="round"/>
<path d="M36.51 34.7L27.74 29.63" stroke="#4F7496" stroke-width="2" stroke-miterlimit="10" stroke-linecap="round"/>
<path d="M37.06 36.38L36.38 34.62L38.24 34.34" fill="url(#paint2_linear_12_4508)"/>
<path d="M27.19 27.96L27.87 29.71L26.01 30" stroke="#4F7496" stroke-width="2" stroke-miterlimit="10" stroke-linecap="round"/>
<path d="M26.5 54.63C27.6046 54.63 28.5 53.7346 28.5 52.63C28.5 51.5254 27.6046 50.63 26.5 50.63C25.3954 50.63 24.5 51.5254 24.5 52.63C24.5 53.7346 25.3954 54.63 26.5 54.63Z" fill="#4F7496"/>
<path d="M36.5 57.13C37.3284 57.13 38 56.4584 38 55.63C38 54.8016 37.3284 54.13 36.5 54.13C35.6716 54.13 35 54.8016 35 55.63C35 56.4584 35.6716 57.13 36.5 57.13Z" fill="#4F7496"/>
<path d="M18.5 50.13C19.3284 50.13 20 49.4584 20 48.63C20 47.8016 19.3284 47.13 18.5 47.13C17.6716 47.13 17 47.8016 17 48.63C17 49.4584 17.6716 50.13 18.5 50.13Z" fill="#4F7496"/>
<path d="M32.5 49.63C33.0523 49.63 33.5 49.1823 33.5 48.63C33.5 48.0777 33.0523 47.63 32.5 47.63C31.9477 47.63 31.5 48.0777 31.5 48.63C31.5 49.1823 31.9477 49.63 32.5 49.63Z" fill="#4F7496"/>
<path d="M46.5 56.63C47.0523 56.63 47.5 56.1823 47.5 55.63C47.5 55.0777 47.0523 54.63 46.5 54.63C45.9477 54.63 45.5 55.0777 45.5 55.63C45.5 56.1823 45.9477 56.63 46.5 56.63Z" fill="#4F7496"/>
<path d="M17.5 56.63C18.0523 56.63 18.5 56.1823 18.5 55.63C18.5 55.0777 18.0523 54.63 17.5 54.63C16.9477 54.63 16.5 55.0777 16.5 55.63C16.5 56.1823 16.9477 56.63 17.5 56.63Z" fill="#4F7496"/>
<path d="M42.5 51.63C43.6046 51.63 44.5 50.7346 44.5 49.63C44.5 48.5254 43.6046 47.63 42.5 47.63C41.3954 47.63 40.5 48.5254 40.5 49.63C40.5 50.7346 41.3954 51.63 42.5 51.63Z" fill="#4F7496"/>
<defs>
<linearGradient id="paint0_linear_12_4508" x1="19.1948" y1="46.39" x2="40.2828" y2="19.0725" gradientUnits="userSpaceOnUse">
<stop stop-color="#C2C3D5"/>
<stop offset="1" stop-color="#AAABC4"/>
</linearGradient>
<linearGradient id="paint1_linear_12_4508" x1="51.68" y1="26.1975" x2="35.7392" y2="40.0697" gradientUnits="userSpaceOnUse">
<stop offset="0.02" stop-color="white"/>
<stop offset="1" stop-color="white" stop-opacity="0"/>
</linearGradient>
<linearGradient id="paint2_linear_12_4508" x1="36.8331" y1="36.4668" x2="38.0613" y2="35.5215" gradientUnits="userSpaceOnUse">
<stop stop-color="#C2C3D5"/>
<stop offset="1" stop-color="#AAABC4"/>
</linearGradient>
</defs>
</svg>
